<svg width="19" height="19" viewBox="0 0 19 19" fill="none" xmlns="http://www.w3.org/2000/svg">
<path d="M17.6752 2.5551C17.6752 1.96705 17.6748 1.6728 17.5603 1.44819C17.4596 1.25062 17.2996 1.09011 17.102 0.989443C16.8774 0.875 16.5828 0.875 15.9947 0.875H2.55474C1.96669 0.875 1.67295 0.875 1.44835 0.989443C1.25078 1.09011 1.09026 1.25062 0.989596 1.44819C0.875153 1.6728 0.875153 1.96705 0.875153 2.5551V3.32922C0.875153 3.58604 0.875153 3.71455 0.904164 3.83539C0.929886 3.94253 0.972416 4.04487 1.02999 4.13882C1.0949 4.24475 1.18586 4.3357 1.36734 4.51719L6.68322 9.83307C6.8648 10.0147 6.95511 10.105 7.02004 10.2109C7.07761 10.3049 7.12072 10.4076 7.14644 10.5147C7.17516 10.6343 7.17516 10.7613 7.17515 11.0129V16.0066C7.17515 16.9066 7.17515 17.3569 7.36472 17.628C7.53026 17.8647 7.78563 18.0225 8.07134 18.0647C8.39855 18.1131 8.8013 17.912 9.60635 17.5095L10.4464 17.0895C10.7835 16.9209 10.9516 16.8364 11.0748 16.7106C11.1837 16.5994 11.267 16.4659 11.3177 16.3188C11.3751 16.1524 11.3752 15.9635 11.3752 15.5866V11.0207C11.3752 10.7639 11.3752 10.6355 11.4042 10.5147C11.4299 10.4076 11.4724 10.3049 11.53 10.2109C11.5945 10.1057 11.6846 10.0156 11.8637 9.83642L11.8673 9.83307L17.1832 4.51719C17.3648 4.33559 17.4551 4.24478 17.52 4.13882C17.5776 4.04487 17.6207 3.94253 17.6464 3.83539C17.6752 3.71578 17.6752 3.58866 17.6752 3.33704V2.5551Z" stroke="#999999" stroke-width="1.75" stroke-linecap="round" stroke-linejoin="round"/>
</svg>
