<svg width="179" height="49" viewBox="0 0 179 49" fill="none" xmlns="http://www.w3.org/2000/svg">
<path d="M0.855858 9.73151H5.07096C5.07096 10.5851 5.15654 10.8626 5.49889 11.076C5.90542 11.3321 6.37614 11.3748 9.43583 11.3748C14.1003 11.3748 14.1003 11.3748 14.1003 10.1156C14.1003 9.262 13.7793 9.04859 12.3885 9.02725L8.96511 8.89921L6.65429 8.7925L5.49889 8.74982C1.96847 8.64311 0.984236 7.74679 0.984236 4.60966C0.984236 1.89935 1.75451 0.682913 3.72298 0.256093C4.55744 0.0853643 6.52592 0 9.94935 0C14.1003 0 15.598 0.192069 16.6036 0.874982C17.4595 1.45119 17.8018 2.34751 17.8018 4.03345C17.8018 4.11882 17.8018 4.41759 17.7804 4.69503H13.5867C13.544 3.90541 13.4798 3.71334 13.1588 3.52127C12.7951 3.30786 12.2602 3.26518 9.17908 3.26518C5.49889 3.26518 5.19934 3.35054 5.19934 4.39625C5.19934 4.92978 5.3919 5.20721 5.84123 5.31391C6.22637 5.42062 7.40317 5.48464 10.4201 5.57001C15.1273 5.71939 16.0473 5.8261 16.9674 6.40231C17.9516 7.04254 18.3154 8.00288 18.3154 9.9876C18.3154 12.4632 17.7163 13.6796 16.2399 14.2345C15.384 14.5546 13.5867 14.6613 9.32885 14.6613C4.89979 14.6613 3.16667 14.4692 2.16104 13.829C1.1768 13.2101 0.855858 12.3778 0.855858 10.4144V9.73151Z" fill="#E6E6E6"/>
<path d="M19.8405 0.21341H24.398V5.31391H34.2189V0.21341H38.7764V14.4479H34.2189V9.30469H24.398V14.4479H19.8405V0.21341Z" fill="#E6E6E6"/>
<path d="M56.2469 14.4479L55.0273 12.0363H45.5915L44.3719 14.4479H39.4079L46.9609 0.21341H53.7221L61.1895 14.4479H56.2469ZM53.5082 8.92055L50.748 3.52127H49.8922L47.132 8.92055H53.5082Z" fill="#E6E6E6"/>
<path d="M61.8394 0.21341H66.3969V14.4479H61.8394V0.21341Z" fill="#E6E6E6"/>
<path d="M68.4004 0.21341H72.7439V5.37794H75.1189L80.7676 0.128047H87.4219L79.1628 7.19193L88.1065 14.4479H81.5164L75.1189 9.00591H72.7439V14.4479H68.4004V0.21341Z" fill="#E6E6E6"/>
<path d="M88.6894 0.21341H93.2469V5.31391H103.068V0.21341H107.625V14.4479H103.068V9.30469H93.2469V14.4479H88.6894V0.21341Z" fill="#E6E6E6"/>
<path d="M1.36937 17.4895H9.24327L13.4798 26.7301L17.7377 17.4895H25.5688V31.7239H21.2895L21.3964 21.0748H20.669L15.2985 31.7239H11.6825L6.31195 21.0748H5.54168L5.64866 31.7239H1.36937V17.4895Z" fill="#E6E6E6"/>
<path d="M37.0508 17.2761C43.0204 17.2761 44.347 17.4255 45.4382 18.2577C46.5294 19.0901 46.8504 20.5199 46.8504 24.596C46.8504 28.6935 46.5294 30.1234 45.4382 30.9557C44.347 31.788 42.999 31.9373 37.0936 31.9373C31.0812 31.9373 29.7546 31.788 28.6634 30.9557C27.5508 30.102 27.2512 28.6935 27.2512 24.5107C27.2512 20.5412 27.5722 19.0901 28.6634 18.2577C29.7546 17.4255 31.0812 17.2761 37.0508 17.2761ZM37.0508 20.9681C32.7715 20.9681 32.365 21.0321 31.937 21.8644C31.6803 22.3552 31.5947 23.1662 31.5947 24.9802C31.5947 26.7515 31.7231 27.3277 32.2366 27.7332C32.8143 28.1813 33.499 28.2453 37.0936 28.2453C40.5812 28.2453 41.2873 28.16 41.865 27.7332C42.3571 27.349 42.5069 26.7301 42.5069 25.0015C42.5069 22.8888 42.3785 22.0778 41.9934 21.6083C41.5012 21.0321 41.0305 20.9681 37.0508 20.9681Z" fill="#E6E6E6"/>
<path d="M48.5711 17.4895H53.1285V22.59H62.9495V17.4895H67.507V31.7239H62.9495V26.5807H53.1285V31.7239H48.5711V17.4895Z" fill="#E6E6E6"/>
<path d="M84.9775 31.7239L83.7579 29.3124H74.3221L73.1025 31.7239H68.1385L75.6914 17.4895H82.4527L89.9201 31.7239H84.9775ZM82.2387 26.1966L79.4786 20.7973H78.6227L75.8626 26.1966H82.2387Z" fill="#E6E6E6"/>
<path d="M90.57 17.4895H98.4439L102.68 26.7301L106.938 17.4895H114.769V31.7239H110.49L110.597 21.0748H109.87L104.499 31.7239H100.883L95.5126 21.0748H94.7423L94.8493 31.7239H90.57V17.4895Z" fill="#E6E6E6"/>
<path d="M116.751 17.4895H124.625L128.862 26.7301L133.12 17.4895H140.951V31.7239H136.671L136.778 21.0748H136.051L130.68 31.7239H127.064L121.694 21.0748H120.924L121.031 31.7239H116.751V17.4895Z" fill="#E6E6E6"/>
<path d="M142.933 17.4895H158.723V20.84H147.212V22.9101H158.146V26.0472H147.212V28.3094H158.809V31.7239H142.933V17.4895Z" fill="#E6E6E6"/>
<path d="M160.171 31.7239V17.4895H170.463C174.1 17.4895 174.592 17.5108 175.812 17.7669C177.224 18.0443 178.166 18.8553 178.593 20.1784C178.914 21.1815 179 22.0778 179 24.404C179 28.1173 178.679 29.5685 177.631 30.5288C176.539 31.5105 175.277 31.7239 170.463 31.7239H160.171ZM164.45 28.096H170.506C174.443 28.096 174.721 27.8826 174.721 24.6601C174.721 22.9101 174.571 22.1205 174.143 21.651C173.694 21.1388 173.116 21.0534 170.463 21.0534H164.45V28.096Z" fill="#E6E6E6"/>
<path d="M16.839 49L15.6194 46.5885H6.18357L4.96398 49H0L7.55295 34.7655H14.3142L21.7816 49H16.839ZM14.1003 43.4727L11.3401 38.0734H10.4843L7.72412 43.4727H14.1003Z" fill="#999999"/>
<path d="M22.4315 34.7655H26.9889V39.866H36.8099V34.7655H41.3674V49H36.8099V43.8568H26.9889V49H22.4315V34.7655Z" fill="#999999"/>
<path d="M43.3683 34.7655H51.2421L55.4786 44.0062L59.7365 34.7655H67.5676V49H63.2883L63.3953 38.3508H62.6679L57.2973 49H53.6813L48.3108 38.3508H47.5406L47.6475 49H43.3683V34.7655Z" fill="#999999"/>
<path d="M69.5496 34.7655H85.3402V38.1161H73.8289V40.1862H84.7625V43.3233H73.8289V45.5854H85.4258V49H69.5496V34.7655Z" fill="#999999"/>
<path d="M86.788 49V34.7655H97.0797C100.717 34.7655 101.209 34.7869 102.429 35.043C103.841 35.3204 104.782 36.1314 105.21 37.4545C105.531 38.4575 105.617 39.3539 105.617 41.68C105.617 45.3934 105.296 46.8446 104.247 47.8049C103.156 48.7866 101.894 49 97.0797 49H86.788ZM91.0673 45.372H97.1225C101.059 45.372 101.338 45.1586 101.338 41.9361C101.338 40.1862 101.188 39.3965 100.76 38.927C100.311 38.4149 99.7328 38.3295 97.0797 38.3295H91.0673V45.372Z" fill="#999999"/>
</svg>
